<svg version="1.2" xmlns="http://www.w3.org/2000/svg" viewBox="0 -0.46460000000001855 841.8898 283.4646" width="842" height="284">
	<title>Logotype RGB</title>
	<style>
		.s0 { fill: #ebe6d6 } 
	</style>
	<g id="Слой 1">
		<g id="&lt;Group&gt;">
			<path id="&lt;Path&gt;" class="s0" d="m112.52 157.97l13.01-33.4h28.46l-6.51 16.7h35.11l17.3-44.38h-122.91l13.45 27.68h17.28l-22.45 13.24-18.65 47.84h98.76l10.79-27.68z"/>
			<path id="&lt;Path&gt;" class="s0" d="m633.94 96.89l-15.39 39.48h-28.46l15.39-39.48h-35.11l-34.6 88.76h35.12l7.46-19.14 34.46-15.42-13.47 34.56h35.12l34.59-88.76z"/>
			<path id="&lt;Compound Path&gt;" class="s0" d="m276.79 96.89l-47.01 39.93 15.56-39.93h-35.11l-34.6 88.76h35.12l46.87-39.57-15.42 39.57h35.11l29.34-75.27 9.2 14.19h22.13l-50.48 61.08h40.44l50.47-61.08h11.43l-23.8 61.08h35.11l29.5-75.7 9.48 14.62h22.13l-50.48 61.08h40.43l24.01-29.05 18.65 17.36-4.56 11.69h35.12l34.59-88.76zm229.15 48.64h-20.58l17.33-20.96h11.42z"/>
			<path id="&lt;Path&gt;" class="s0" d="m764.49 124.57l10.79-27.68h-98.69l-10.79 27.68h47.62l-22.46 13.24-7.85 20.16h-12.29l-10.79 27.68h61.04l10.79-27.68h-13.64l13.02-33.4z"/>
		</g>
	</g>
</svg>